<?xml version="1.0" encoding="UTF-8" standalone="yes"?><svg xmlns="http://www.w3.org/2000/svg" xmlns:xlink="http://www.w3.org/1999/xlink" height="579pt" style="width:2065px;height:579px;" version="1.1" viewBox="0 0 2065 579" width="2065pt"><defs><filter height="300%" id="f1" width="300%" x="-1" y="-1"><feGaussianBlur result="blurOut" stdDeviation="2.0"/><feColorMatrix in="blurOut" result="blurOut2" type="matrix" values="0 0 0 0 0 0 0 0 0 0 0 0 0 0 0 0 0 0 .4 0"/><feOffset dx="4.0" dy="4.0" in="blurOut2" result="blurOut3"/><feBlend in="SourceGraphic" in2="blurOut3" mode="normal"/></filter></defs><g><polygon fill="#FFFFFF" filter="url(#f1)" points="335,24,491,24,498,46.4883,502,46.4883,502,124,335,124,335,24" style="stroke: #000000; stroke-width: 2.0;"/><line style="stroke: #000000; stroke-width: 2.0;" x1="335" x2="498" y1="46.4883" y2="46.4883"/><text fill="#000000" font-family="sans-serif" font-size="14" font-weight="bold" lengthAdjust="spacingAndGlyphs" textLength="150" x="338" y="40.5352">io.sphere.sdk.models</text><polygon fill="#FFFFFF" filter="url(#f1)" points="22,148,155,148,162,170.4883,168,170.4883,168,248,22,248,22,148" style="stroke: #000000; stroke-width: 2.0;"/><line style="stroke: #000000; stroke-width: 2.0;" x1="22" x2="162" y1="170.4883" y2="170.4883"/><text fill="#000000" font-family="sans-serif" font-size="14" font-weight="bold" lengthAdjust="spacingAndGlyphs" textLength="127" x="25" y="164.5352">io.sphere.sdk.http</text><polygon fill="#FFFFFF" filter="url(#f1)" points="192,148,326,148,333,170.4883,337,170.4883,337,248,192,248,192,148" style="stroke: #000000; stroke-width: 2.0;"/><line style="stroke: #000000; stroke-width: 2.0;" x1="192" x2="333" y1="170.4883" y2="170.4883"/><text fill="#000000" font-family="sans-serif" font-size="14" font-weight="bold" lengthAdjust="spacingAndGlyphs" textLength="128" x="195" y="164.5352">io.sphere.sdk.json</text><polygon fill="#FFFFFF" filter="url(#f1)" points="361,148,504,148,511,170.4883,2058,170.4883,2058,572,361,572,361,148" style="stroke: #000000; stroke-width: 2.0;"/><line style="stroke: #000000; stroke-width: 2.0;" x1="361" x2="511" y1="170.4883" y2="170.4883"/><text fill="#000000" font-family="sans-serif" font-size="14" font-weight="bold" lengthAdjust="spacingAndGlyphs" textLength="137" x="364" y="164.5352">io.sphere.sdk.client</text><rect fill="#FEFECE" filter="url(#f1)" height="48" style="stroke: #A80036; stroke-width: 1.5;" width="128" x="354" y="60"/><ellipse cx="369" cy="76" fill="#ADD1B2" rx="11" ry="11" style="stroke: #A80036; stroke-width: 1.0;"/><path d="M371.9731,81.6431 Q371.3921,81.9419 370.7529,82.0913 Q370.1138,82.2407 369.4082,82.2407 Q366.9014,82.2407 365.5815,80.5889 Q364.2617,78.937 364.2617,75.8159 Q364.2617,72.6865 365.5815,71.0347 Q366.9014,69.3828 369.4082,69.3828 Q370.1138,69.3828 370.7612,69.5322 Q371.4087,69.6816 371.9731,69.9805 L371.9731,72.7031 Q371.3423,72.1221 370.7488,71.8523 Q370.1553,71.5825 369.5244,71.5825 Q368.1797,71.5825 367.4949,72.6492 Q366.8101,73.7158 366.8101,75.8159 Q366.8101,77.9077 367.4949,78.9744 Q368.1797,80.041 369.5244,80.041 Q370.1553,80.041 370.7488,79.7712 Q371.3423,79.5015 371.9731,78.9204 Z "/><text fill="#000000" font-family="sans-serif" font-size="12" lengthAdjust="spacingAndGlyphs" textLength="96" x="383" y="80.5352">SphereException</text><line style="stroke: #A80036; stroke-width: 1.5;" x1="355" x2="481" y1="92" y2="92"/><line style="stroke: #A80036; stroke-width: 1.5;" x1="355" x2="481" y1="100" y2="100"/><rect fill="#FEFECE" filter="url(#f1)" height="48" style="stroke: #A80036; stroke-width: 1.5;" width="113" x="38.75" y="184"/><ellipse cx="53.75" cy="200" fill="#ADD1B2" rx="11" ry="11" style="stroke: #A80036; stroke-width: 1.0;"/><path d="M56.7231,205.6431 Q56.1421,205.9419 55.5029,206.0913 Q54.8638,206.2407 54.1582,206.2407 Q51.6514,206.2407 50.3315,204.5889 Q49.0117,202.937 49.0117,199.8159 Q49.0117,196.6865 50.3315,195.0347 Q51.6514,193.3828 54.1582,193.3828 Q54.8638,193.3828 55.5112,193.5322 Q56.1587,193.6816 56.7231,193.9805 L56.7231,196.7031 Q56.0923,196.1221 55.4988,195.8523 Q54.9053,195.5825 54.2744,195.5825 Q52.9297,195.5825 52.2449,196.6492 Q51.5601,197.7158 51.5601,199.8159 Q51.5601,201.9077 52.2449,202.9744 Q52.9297,204.041 54.2744,204.041 Q54.9053,204.041 55.4988,203.7712 Q56.0923,203.5015 56.7231,202.9204 Z "/><text fill="#000000" font-family="sans-serif" font-size="12" lengthAdjust="spacingAndGlyphs" textLength="81" x="67.75" y="204.5352">HttpException</text><line style="stroke: #A80036; stroke-width: 1.5;" x1="39.75" x2="150.75" y1="216" y2="216"/><line style="stroke: #A80036; stroke-width: 1.5;" x1="39.75" x2="150.75" y1="224" y2="224"/><rect fill="#FEFECE" filter="url(#f1)" height="48" style="stroke: #A80036; stroke-width: 1.5;" width="112" x="209" y="184"/><ellipse cx="224" cy="200" fill="#ADD1B2" rx="11" ry="11" style="stroke: #A80036; stroke-width: 1.0;"/><path d="M226.9731,205.6431 Q226.3921,205.9419 225.7529,206.0913 Q225.1138,206.2407 224.4082,206.2407 Q221.9014,206.2407 220.5815,204.5889 Q219.2617,202.937 219.2617,199.8159 Q219.2617,196.6865 220.5815,195.0347 Q221.9014,193.3828 224.4082,193.3828 Q225.1138,193.3828 225.7612,193.5322 Q226.4087,193.6816 226.9731,193.9805 L226.9731,196.7031 Q226.3423,196.1221 225.7488,195.8523 Q225.1553,195.5825 224.5244,195.5825 Q223.1797,195.5825 222.4949,196.6492 Q221.8101,197.7158 221.8101,199.8159 Q221.8101,201.9077 222.4949,202.9744 Q223.1797,204.041 224.5244,204.041 Q225.1553,204.041 225.7488,203.7712 Q226.3423,203.5015 226.9731,202.9204 Z "/><text fill="#000000" font-family="sans-serif" font-size="12" lengthAdjust="spacingAndGlyphs" textLength="80" x="238" y="204.5352">JsonException</text><line style="stroke: #A80036; stroke-width: 1.5;" x1="210" x2="320" y1="216" y2="216"/><line style="stroke: #A80036; stroke-width: 1.5;" x1="210" x2="320" y1="224" y2="224"/><rect fill="#FEFECE" filter="url(#f1)" height="48" style="stroke: #A80036; stroke-width: 1.5;" width="198" x="690" y="184"/><ellipse cx="705" cy="200" fill="#ADD1B2" rx="11" ry="11" style="stroke: #A80036; stroke-width: 1.0;"/><path d="M707.9731,205.6431 Q707.3921,205.9419 706.7529,206.0913 Q706.1138,206.2407 705.4082,206.2407 Q702.9014,206.2407 701.5815,204.5889 Q700.2617,202.937 700.2617,199.8159 Q700.2617,196.6865 701.5815,195.0347 Q702.9014,193.3828 705.4082,193.3828 Q706.1138,193.3828 706.7612,193.5322 Q707.4087,193.6816 707.9731,193.9805 L707.9731,196.7031 Q707.3423,196.1221 706.7488,195.8523 Q706.1553,195.5825 705.5244,195.5825 Q704.1797,195.5825 703.4949,196.6492 Q702.8101,197.7158 702.8101,199.8159 Q702.8101,201.9077 703.4949,202.9744 Q704.1797,204.041 705.5244,204.041 Q706.1553,204.041 706.7488,203.7712 Q707.3423,203.5015 707.9731,202.9204 Z "/><text fill="#000000" font-family="sans-serif" font-size="12" lengthAdjust="spacingAndGlyphs" textLength="166" x="719" y="204.5352">SphereDeprecationException</text><line style="stroke: #A80036; stroke-width: 1.5;" x1="691" x2="887" y1="216" y2="216"/><line style="stroke: #A80036; stroke-width: 1.5;" x1="691" x2="887" y1="224" y2="224"/><rect fill="#FEFECE" filter="url(#f1)" height="48" style="stroke: #A80036; stroke-width: 1.5;" width="168" x="487" y="184"/><ellipse cx="502" cy="200" fill="#ADD1B2" rx="11" ry="11" style="stroke: #A80036; stroke-width: 1.0;"/><path d="M504.9731,205.6431 Q504.3921,205.9419 503.7529,206.0913 Q503.1138,206.2407 502.4082,206.2407 Q499.9014,206.2407 498.5815,204.5889 Q497.2617,202.937 497.2617,199.8159 Q497.2617,196.6865 498.5815,195.0347 Q499.9014,193.3828 502.4082,193.3828 Q503.1138,193.3828 503.7612,193.5322 Q504.4087,193.6816 504.9731,193.9805 L504.9731,196.7031 Q504.3423,196.1221 503.7488,195.8523 Q503.1553,195.5825 502.5244,195.5825 Q501.1797,195.5825 500.4949,196.6492 Q499.8101,197.7158 499.8101,199.8159 Q499.8101,201.9077 500.4949,202.9744 Q501.1797,204.041 502.5244,204.041 Q503.1553,204.041 503.7488,203.7712 Q504.3423,203.5015 504.9731,202.9204 Z "/><text fill="#000000" font-family="sans-serif" font-size="12" lengthAdjust="spacingAndGlyphs" textLength="136" x="516" y="204.5352">SphereServiceException</text><line style="stroke: #A80036; stroke-width: 1.5;" x1="488" x2="654" y1="216" y2="216"/><line style="stroke: #A80036; stroke-width: 1.5;" x1="488" x2="654" y1="224" y2="224"/><rect fill="#FEFECE" filter="url(#f1)" height="48" style="stroke: #A80036; stroke-width: 1.5;" width="149" x="605.75" y="292"/><ellipse cx="620.75" cy="308" fill="#ADD1B2" rx="11" ry="11" style="stroke: #A80036; stroke-width: 1.0;"/><path d="M623.7231,313.6431 Q623.1421,313.9419 622.5029,314.0913 Q621.8638,314.2407 621.1582,314.2407 Q618.6514,314.2407 617.3315,312.5889 Q616.0117,310.937 616.0117,307.8159 Q616.0117,304.6865 617.3315,303.0347 Q618.6514,301.3828 621.1582,301.3828 Q621.8638,301.3828 622.5112,301.5322 Q623.1587,301.6816 623.7231,301.9805 L623.7231,304.7031 Q623.0923,304.1221 622.4988,303.8523 Q621.9053,303.5825 621.2744,303.5825 Q619.9297,303.5825 619.2449,304.6492 Q618.5601,305.7158 618.5601,307.8159 Q618.5601,309.9077 619.2449,310.9744 Q619.9297,312.041 621.2744,312.041 Q621.9053,312.041 622.4988,311.7712 Q623.0923,311.5015 623.7231,310.9204 Z "/><text fill="#000000" font-family="sans-serif" font-size="12" lengthAdjust="spacingAndGlyphs" textLength="117" x="634.75" y="312.5352">ClientErrorException</text><line style="stroke: #A80036; stroke-width: 1.5;" x1="606.75" x2="753.75" y1="324" y2="324"/><line style="stroke: #A80036; stroke-width: 1.5;" x1="606.75" x2="753.75" y1="332" y2="332"/><rect fill="#FEFECE" filter="url(#f1)" height="48" style="stroke: #A80036; stroke-width: 1.5;" width="157" x="377.75" y="400"/><ellipse cx="392.75" cy="416" fill="#ADD1B2" rx="11" ry="11" style="stroke: #A80036; stroke-width: 1.0;"/><path d="M395.7231,421.6431 Q395.1421,421.9419 394.5029,422.0913 Q393.8638,422.2407 393.1582,422.2407 Q390.6514,422.2407 389.3315,420.5889 Q388.0117,418.937 388.0117,415.8159 Q388.0117,412.6865 389.3315,411.0347 Q390.6514,409.3828 393.1582,409.3828 Q393.8638,409.3828 394.5112,409.5322 Q395.1587,409.6816 395.7231,409.9805 L395.7231,412.7031 Q395.0923,412.1221 394.4988,411.8523 Q393.9053,411.5825 393.2744,411.5825 Q391.9297,411.5825 391.2449,412.6492 Q390.5601,413.7158 390.5601,415.8159 Q390.5601,417.9077 391.2449,418.9744 Q391.9297,420.041 393.2744,420.041 Q393.9053,420.041 394.4988,419.7712 Q395.0923,419.5015 395.7231,418.9204 Z "/><text fill="#000000" font-family="sans-serif" font-size="12" lengthAdjust="spacingAndGlyphs" textLength="125" x="406.75" y="420.5352">BadRequestException</text><line style="stroke: #A80036; stroke-width: 1.5;" x1="378.75" x2="533.75" y1="432" y2="432"/><line style="stroke: #A80036; stroke-width: 1.5;" x1="378.75" x2="533.75" y1="440" y2="440"/><rect fill="#FEFECE" filter="url(#f1)" height="48" style="stroke: #A80036; stroke-width: 1.5;" width="173" x="377.75" y="508"/><ellipse cx="392.75" cy="524" fill="#ADD1B2" rx="11" ry="11" style="stroke: #A80036; stroke-width: 1.0;"/><path d="M395.7231,529.6431 Q395.1421,529.9419 394.5029,530.0913 Q393.8638,530.2407 393.1582,530.2407 Q390.6514,530.2407 389.3315,528.5889 Q388.0117,526.937 388.0117,523.8159 Q388.0117,520.6865 389.3315,519.0347 Q390.6514,517.3828 393.1582,517.3828 Q393.8638,517.3828 394.5112,517.5322 Q395.1587,517.6816 395.7231,517.9805 L395.7231,520.7031 Q395.0923,520.1221 394.4988,519.8523 Q393.9053,519.5825 393.2744,519.5825 Q391.9297,519.5825 391.2449,520.6492 Q390.5601,521.7158 390.5601,523.8159 Q390.5601,525.9077 391.2449,526.9744 Q391.9297,528.041 393.2744,528.041 Q393.9053,528.041 394.4988,527.7712 Q395.0923,527.5015 395.7231,526.9204 Z "/><text fill="#000000" font-family="sans-serif" font-size="12" lengthAdjust="spacingAndGlyphs" textLength="141" x="406.75" y="528.5352">ErrorResponseException</text><line style="stroke: #A80036; stroke-width: 1.5;" x1="378.75" x2="549.75" y1="540" y2="540"/><line style="stroke: #A80036; stroke-width: 1.5;" x1="378.75" x2="549.75" y1="548" y2="548"/><rect fill="#FEFECE" filter="url(#f1)" height="48" style="stroke: #A80036; stroke-width: 1.5;" width="220" x="570" y="400"/><ellipse cx="585" cy="416" fill="#ADD1B2" rx="11" ry="11" style="stroke: #A80036; stroke-width: 1.0;"/><path d="M587.9731,421.6431 Q587.3921,421.9419 586.7529,422.0913 Q586.1138,422.2407 585.4082,422.2407 Q582.9014,422.2407 581.5815,420.5889 Q580.2617,418.937 580.2617,415.8159 Q580.2617,412.6865 581.5815,411.0347 Q582.9014,409.3828 585.4082,409.3828 Q586.1138,409.3828 586.7612,409.5322 Q587.4087,409.6816 587.9731,409.9805 L587.9731,412.7031 Q587.3423,412.1221 586.7488,411.8523 Q586.1553,411.5825 585.5244,411.5825 Q584.1797,411.5825 583.4949,412.6492 Q582.8101,413.7158 582.8101,415.8159 Q582.8101,417.9077 583.4949,418.9744 Q584.1797,420.041 585.5244,420.041 Q586.1553,420.041 586.7488,419.7712 Q587.3423,419.5015 587.9731,418.9204 Z "/><text fill="#000000" font-family="sans-serif" font-size="12" lengthAdjust="spacingAndGlyphs" textLength="188" x="599" y="420.5352">ConcurrentModificationException</text><line style="stroke: #A80036; stroke-width: 1.5;" x1="571" x2="789" y1="432" y2="432"/><line style="stroke: #A80036; stroke-width: 1.5;" x1="571" x2="789" y1="440" y2="440"/><rect fill="#FEFECE" filter="url(#f1)" height="48" style="stroke: #A80036; stroke-width: 1.5;" width="143" x="825.75" y="400"/><ellipse cx="840.75" cy="416" fill="#ADD1B2" rx="11" ry="11" style="stroke: #A80036; stroke-width: 1.0;"/><path d="M843.7231,421.6431 Q843.1421,421.9419 842.5029,422.0913 Q841.8638,422.2407 841.1582,422.2407 Q838.6514,422.2407 837.3315,420.5889 Q836.0117,418.937 836.0117,415.8159 Q836.0117,412.6865 837.3315,411.0347 Q838.6514,409.3828 841.1582,409.3828 Q841.8638,409.3828 842.5112,409.5322 Q843.1587,409.6816 843.7231,409.9805 L843.7231,412.7031 Q843.0923,412.1221 842.4988,411.8523 Q841.9053,411.5825 841.2744,411.5825 Q839.9297,411.5825 839.2449,412.6492 Q838.5601,413.7158 838.5601,415.8159 Q838.5601,417.9077 839.2449,418.9744 Q839.9297,420.041 841.2744,420.041 Q841.9053,420.041 842.4988,419.7712 Q843.0923,419.5015 843.7231,418.9204 Z "/><text fill="#000000" font-family="sans-serif" font-size="12" lengthAdjust="spacingAndGlyphs" textLength="111" x="854.75" y="420.5352">NotFoundException</text><line style="stroke: #A80036; stroke-width: 1.5;" x1="826.75" x2="967.75" y1="432" y2="432"/><line style="stroke: #A80036; stroke-width: 1.5;" x1="826.75" x2="967.75" y1="440" y2="440"/><rect fill="#FEFECE" filter="url(#f1)" height="48" style="stroke: #A80036; stroke-width: 1.5;" width="165" x="1003.75" y="400"/><ellipse cx="1018.75" cy="416" fill="#ADD1B2" rx="11" ry="11" style="stroke: #A80036; stroke-width: 1.0;"/><path d="M1021.7231,421.6431 Q1021.1421,421.9419 1020.5029,422.0913 Q1019.8638,422.2407 1019.1582,422.2407 Q1016.6514,422.2407 1015.3315,420.5889 Q1014.0117,418.937 1014.0117,415.8159 Q1014.0117,412.6865 1015.3315,411.0347 Q1016.6514,409.3828 1019.1582,409.3828 Q1019.8638,409.3828 1020.5112,409.5322 Q1021.1587,409.6816 1021.7231,409.9805 L1021.7231,412.7031 Q1021.0923,412.1221 1020.4988,411.8523 Q1019.9053,411.5825 1019.2744,411.5825 Q1017.9297,411.5825 1017.2449,412.6492 Q1016.5601,413.7158 1016.5601,415.8159 Q1016.5601,417.9077 1017.2449,418.9744 Q1017.9297,420.041 1019.2744,420.041 Q1019.9053,420.041 1020.4988,419.7712 Q1021.0923,419.5015 1021.7231,418.9204 Z "/><text fill="#000000" font-family="sans-serif" font-size="12" lengthAdjust="spacingAndGlyphs" textLength="133" x="1032.75" y="420.5352">UnauthorizedException</text><line style="stroke: #A80036; stroke-width: 1.5;" x1="1004.75" x2="1167.75" y1="432" y2="432"/><line style="stroke: #A80036; stroke-width: 1.5;" x1="1004.75" x2="1167.75" y1="440" y2="440"/><rect fill="#FEFECE" filter="url(#f1)" height="48" style="stroke: #A80036; stroke-width: 1.5;" width="222" x="861" y="508"/><ellipse cx="876" cy="524" fill="#ADD1B2" rx="11" ry="11" style="stroke: #A80036; stroke-width: 1.0;"/><path d="M878.9731,529.6431 Q878.3921,529.9419 877.7529,530.0913 Q877.1138,530.2407 876.4082,530.2407 Q873.9014,530.2407 872.5815,528.5889 Q871.2617,526.937 871.2617,523.8159 Q871.2617,520.6865 872.5815,519.0347 Q873.9014,517.3828 876.4082,517.3828 Q877.1138,517.3828 877.7612,517.5322 Q878.4087,517.6816 878.9731,517.9805 L878.9731,520.7031 Q878.3423,520.1221 877.7488,519.8523 Q877.1553,519.5825 876.5244,519.5825 Q875.1797,519.5825 874.4949,520.6492 Q873.8101,521.7158 873.8101,523.8159 Q873.8101,525.9077 874.4949,526.9744 Q875.1797,528.041 876.5244,528.041 Q877.1553,528.041 877.7488,527.7712 Q878.3423,527.5015 878.9731,526.9204 Z "/><text fill="#000000" font-family="sans-serif" font-size="12" lengthAdjust="spacingAndGlyphs" textLength="190" x="890" y="528.5352">InvalidClientCredentialsException</text><line style="stroke: #A80036; stroke-width: 1.5;" x1="862" x2="1082" y1="540" y2="540"/><line style="stroke: #A80036; stroke-width: 1.5;" x1="862" x2="1082" y1="548" y2="548"/><rect fill="#FEFECE" filter="url(#f1)" height="48" style="stroke: #A80036; stroke-width: 1.5;" width="161" x="1118.75" y="508"/><ellipse cx="1133.75" cy="524" fill="#ADD1B2" rx="11" ry="11" style="stroke: #A80036; stroke-width: 1.0;"/><path d="M1136.7231,529.6431 Q1136.1421,529.9419 1135.5029,530.0913 Q1134.8638,530.2407 1134.1582,530.2407 Q1131.6514,530.2407 1130.3315,528.5889 Q1129.0117,526.937 1129.0117,523.8159 Q1129.0117,520.6865 1130.3315,519.0347 Q1131.6514,517.3828 1134.1582,517.3828 Q1134.8638,517.3828 1135.5112,517.5322 Q1136.1587,517.6816 1136.7231,517.9805 L1136.7231,520.7031 Q1136.0923,520.1221 1135.4988,519.8523 Q1134.9053,519.5825 1134.2744,519.5825 Q1132.9297,519.5825 1132.2449,520.6492 Q1131.5601,521.7158 1131.5601,523.8159 Q1131.5601,525.9077 1132.2449,526.9744 Q1132.9297,528.041 1134.2744,528.041 Q1134.9053,528.041 1135.4988,527.7712 Q1136.0923,527.5015 1136.7231,526.9204 Z "/><text fill="#000000" font-family="sans-serif" font-size="12" lengthAdjust="spacingAndGlyphs" textLength="129" x="1147.75" y="528.5352">InvalidTokenException</text><line style="stroke: #A80036; stroke-width: 1.5;" x1="1119.75" x2="1278.75" y1="540" y2="540"/><line style="stroke: #A80036; stroke-width: 1.5;" x1="1119.75" x2="1278.75" y1="548" y2="548"/><rect fill="#FEFECE" filter="url(#f1)" height="48" style="stroke: #A80036; stroke-width: 1.5;" width="153" x="1413.75" y="292"/><ellipse cx="1428.75" cy="308" fill="#ADD1B2" rx="11" ry="11" style="stroke: #A80036; stroke-width: 1.0;"/><path d="M1431.7231,313.6431 Q1431.1421,313.9419 1430.5029,314.0913 Q1429.8638,314.2407 1429.1582,314.2407 Q1426.6514,314.2407 1425.3315,312.5889 Q1424.0117,310.937 1424.0117,307.8159 Q1424.0117,304.6865 1425.3315,303.0347 Q1426.6514,301.3828 1429.1582,301.3828 Q1429.8638,301.3828 1430.5112,301.5322 Q1431.1587,301.6816 1431.7231,301.9805 L1431.7231,304.7031 Q1431.0923,304.1221 1430.4988,303.8523 Q1429.9053,303.5825 1429.2744,303.5825 Q1427.9297,303.5825 1427.2449,304.6492 Q1426.5601,305.7158 1426.5601,307.8159 Q1426.5601,309.9077 1427.2449,310.9744 Q1427.9297,312.041 1429.2744,312.041 Q1429.9053,312.041 1430.4988,311.7712 Q1431.0923,311.5015 1431.7231,310.9204 Z "/><text fill="#000000" font-family="sans-serif" font-size="12" lengthAdjust="spacingAndGlyphs" textLength="121" x="1442.75" y="312.5352">ServerErrorException</text><line style="stroke: #A80036; stroke-width: 1.5;" x1="1414.75" x2="1565.75" y1="324" y2="324"/><line style="stroke: #A80036; stroke-width: 1.5;" x1="1414.75" x2="1565.75" y1="332" y2="332"/><rect fill="#FEFECE" filter="url(#f1)" height="48" style="stroke: #A80036; stroke-width: 1.5;" width="159" x="1203.75" y="400"/><ellipse cx="1218.75" cy="416" fill="#ADD1B2" rx="11" ry="11" style="stroke: #A80036; stroke-width: 1.0;"/><path d="M1221.7231,421.6431 Q1221.1421,421.9419 1220.5029,422.0913 Q1219.8638,422.2407 1219.1582,422.2407 Q1216.6514,422.2407 1215.3315,420.5889 Q1214.0117,418.937 1214.0117,415.8159 Q1214.0117,412.6865 1215.3315,411.0347 Q1216.6514,409.3828 1219.1582,409.3828 Q1219.8638,409.3828 1220.5112,409.5322 Q1221.1587,409.6816 1221.7231,409.9805 L1221.7231,412.7031 Q1221.0923,412.1221 1220.4988,411.8523 Q1219.9053,411.5825 1219.2744,411.5825 Q1217.9297,411.5825 1217.2449,412.6492 Q1216.5601,413.7158 1216.5601,415.8159 Q1216.5601,417.9077 1217.2449,418.9744 Q1217.9297,420.041 1219.2744,420.041 Q1219.9053,420.041 1220.4988,419.7712 Q1221.0923,419.5015 1221.7231,418.9204 Z "/><text fill="#000000" font-family="sans-serif" font-size="12" lengthAdjust="spacingAndGlyphs" textLength="127" x="1232.75" y="420.5352">BadGatewayException</text><line style="stroke: #A80036; stroke-width: 1.5;" x1="1204.75" x2="1361.75" y1="432" y2="432"/><line style="stroke: #A80036; stroke-width: 1.5;" x1="1204.75" x2="1361.75" y1="440" y2="440"/><rect fill="#FEFECE" filter="url(#f1)" height="48" style="stroke: #A80036; stroke-width: 1.5;" width="184" x="1398" y="400"/><ellipse cx="1413" cy="416" fill="#ADD1B2" rx="11" ry="11" style="stroke: #A80036; stroke-width: 1.0;"/><path d="M1415.9731,421.6431 Q1415.3921,421.9419 1414.7529,422.0913 Q1414.1138,422.2407 1413.4082,422.2407 Q1410.9014,422.2407 1409.5815,420.5889 Q1408.2617,418.937 1408.2617,415.8159 Q1408.2617,412.6865 1409.5815,411.0347 Q1410.9014,409.3828 1413.4082,409.3828 Q1414.1138,409.3828 1414.7612,409.5322 Q1415.4087,409.6816 1415.9731,409.9805 L1415.9731,412.7031 Q1415.3423,412.1221 1414.7488,411.8523 Q1414.1553,411.5825 1413.5244,411.5825 Q1412.1797,411.5825 1411.4949,412.6492 Q1410.8101,413.7158 1410.8101,415.8159 Q1410.8101,417.9077 1411.4949,418.9744 Q1412.1797,420.041 1413.5244,420.041 Q1414.1553,420.041 1414.7488,419.7712 Q1415.3423,419.5015 1415.9731,418.9204 Z "/><text fill="#000000" font-family="sans-serif" font-size="12" lengthAdjust="spacingAndGlyphs" textLength="152" x="1427" y="420.5352">GatewayTimeoutException</text><line style="stroke: #A80036; stroke-width: 1.5;" x1="1399" x2="1581" y1="432" y2="432"/><line style="stroke: #A80036; stroke-width: 1.5;" x1="1399" x2="1581" y1="440" y2="440"/><rect fill="#FEFECE" filter="url(#f1)" height="48" style="stroke: #A80036; stroke-width: 1.5;" width="196" x="1617" y="400"/><ellipse cx="1632" cy="416" fill="#ADD1B2" rx="11" ry="11" style="stroke: #A80036; stroke-width: 1.0;"/><path d="M1634.9731,421.6431 Q1634.3921,421.9419 1633.7529,422.0913 Q1633.1138,422.2407 1632.4082,422.2407 Q1629.9014,422.2407 1628.5815,420.5889 Q1627.2617,418.937 1627.2617,415.8159 Q1627.2617,412.6865 1628.5815,411.0347 Q1629.9014,409.3828 1632.4082,409.3828 Q1633.1138,409.3828 1633.7612,409.5322 Q1634.4087,409.6816 1634.9731,409.9805 L1634.9731,412.7031 Q1634.3423,412.1221 1633.7488,411.8523 Q1633.1553,411.5825 1632.5244,411.5825 Q1631.1797,411.5825 1630.4949,412.6492 Q1629.8101,413.7158 1629.8101,415.8159 Q1629.8101,417.9077 1630.4949,418.9744 Q1631.1797,420.041 1632.5244,420.041 Q1633.1553,420.041 1633.7488,419.7712 Q1634.3423,419.5015 1634.9731,418.9204 Z "/><text fill="#000000" font-family="sans-serif" font-size="12" lengthAdjust="spacingAndGlyphs" textLength="164" x="1646" y="420.5352">InternalServerErrorException</text><line style="stroke: #A80036; stroke-width: 1.5;" x1="1618" x2="1812" y1="432" y2="432"/><line style="stroke: #A80036; stroke-width: 1.5;" x1="1618" x2="1812" y1="440" y2="440"/><rect fill="#FEFECE" filter="url(#f1)" height="48" style="stroke: #A80036; stroke-width: 1.5;" width="194" x="1848" y="400"/><ellipse cx="1863" cy="416" fill="#ADD1B2" rx="11" ry="11" style="stroke: #A80036; stroke-width: 1.0;"/><path d="M1865.9731,421.6431 Q1865.3921,421.9419 1864.7529,422.0913 Q1864.1138,422.2407 1863.4082,422.2407 Q1860.9014,422.2407 1859.5815,420.5889 Q1858.2617,418.937 1858.2617,415.8159 Q1858.2617,412.6865 1859.5815,411.0347 Q1860.9014,409.3828 1863.4082,409.3828 Q1864.1138,409.3828 1864.7612,409.5322 Q1865.4087,409.6816 1865.9731,409.9805 L1865.9731,412.7031 Q1865.3423,412.1221 1864.7488,411.8523 Q1864.1553,411.5825 1863.5244,411.5825 Q1862.1797,411.5825 1861.4949,412.6492 Q1860.8101,413.7158 1860.8101,415.8159 Q1860.8101,417.9077 1861.4949,418.9744 Q1862.1797,420.041 1863.5244,420.041 Q1864.1553,420.041 1864.7488,419.7712 Q1865.3423,419.5015 1865.9731,418.9204 Z "/><text fill="#000000" font-family="sans-serif" font-size="12" lengthAdjust="spacingAndGlyphs" textLength="162" x="1877" y="420.5352">ServiceUnavailableException</text><line style="stroke: #A80036; stroke-width: 1.5;" x1="1849" x2="2041" y1="432" y2="432"/><line style="stroke: #A80036; stroke-width: 1.5;" x1="1849" x2="2041" y1="440" y2="440"/><path d="M334.124,98.058 C290.76,106.641 237.699,120.054 193,140 C167.591,151.338 141.728,169.35 122.955,183.844 " fill="none" style="stroke: #A80036; stroke-width: 1.0;"/><polygon fill="none" points="332.977,91.152,353.926,94.337,335.563,104.911,332.977,91.152" style="stroke: #A80036; stroke-width: 1.0;"/><path d="M373.061,120.833 C347.539,141.184 316.334,166.067 294.03,183.852 " fill="none" style="stroke: #A80036; stroke-width: 1.0;"/><polygon fill="none" points="368.86,115.23,388.862,108.234,377.589,126.176,368.86,115.23" style="stroke: #A80036; stroke-width: 1.0;"/><path d="M502.139,96.558 C552.522,105.101 617.211,118.96 672,140 C701.609,151.37 732.652,169.474 755.316,183.999 " fill="none" style="stroke: #A80036; stroke-width: 1.0;"/><polygon fill="none" points="500.814,103.435,482.192,93.325,503.055,89.616,500.814,103.435" style="stroke: #A80036; stroke-width: 1.0;"/><path d="M462.939,120.833 C488.461,141.184 519.666,166.067 541.97,183.852 " fill="none" style="stroke: #A80036; stroke-width: 1.0;"/><polygon fill="none" points="458.411,126.176,447.138,108.234,467.14,115.23,458.411,126.176" style="stroke: #A80036; stroke-width: 1.0;"/><path d="M609.335,246.28 C624.873,261.391 642.339,278.375 656.018,291.678 " fill="none" style="stroke: #A80036; stroke-width: 1.0;"/><polygon fill="none" points="604.109,250.962,594.651,232,613.87,240.926,604.109,250.962" style="stroke: #A80036; stroke-width: 1.0;"/><path d="M612.919,348.744 C578.188,365.179 536.551,384.882 504.896,399.862 " fill="none" style="stroke: #A80036; stroke-width: 1.0;"/><polygon fill="none" points="610.323,342.228,631.395,340,616.311,354.883,610.323,342.228" style="stroke: #A80036; stroke-width: 1.0;"/><path d="M459.247,468.024 C460.27,481.579 461.361,496.0381 462.24,507.6784 " fill="none" style="stroke: #A80036; stroke-width: 1.0;"/><polygon fill="none" points="452.261,468.471,457.736,448,466.221,467.417,452.261,468.471" style="stroke: #A80036; stroke-width: 1.0;"/><path d="M680,360.024 C680,373.579 680,388.038 680,399.678 " fill="none" style="stroke: #A80036; stroke-width: 1.0;"/><polygon fill="none" points="673,360,680,340,687,360,673,360" style="stroke: #A80036; stroke-width: 1.0;"/><path d="M745.453,348.972 C779.004,365.361 819.109,384.952 849.632,399.862 " fill="none" style="stroke: #A80036; stroke-width: 1.0;"/><polygon fill="none" points="741.984,355.068,727.086,340,748.129,342.489,741.984,355.068" style="stroke: #A80036; stroke-width: 1.0;"/><path d="M773.826,341.496 C843.295,359.634 937.043,384.11 1003.626,401.493 " fill="none" style="stroke: #A80036; stroke-width: 1.0;"/><polygon fill="none" points="772.05,348.267,754.467,336.442,775.586,334.721,772.05,348.267" style="stroke: #A80036; stroke-width: 1.0;"/><path d="M1046.41,461.809 C1030.04,477.036 1011.54,494.2366 997.082,507.6784 " fill="none" style="stroke: #A80036; stroke-width: 1.0;"/><polygon fill="none" points="1041.85,456.493,1061.26,448,1051.38,466.746,1041.85,456.493" style="stroke: #A80036; stroke-width: 1.0;"/><path d="M1125.24,461.809 C1141.47,477.036 1159.81,494.2366 1174.14,507.6784 " fill="none" style="stroke: #A80036; stroke-width: 1.0;"/><polygon fill="none" points="1120.32,466.789,1110.52,448,1129.9,456.578,1120.32,466.789" style="stroke: #A80036; stroke-width: 1.0;"/><path d="M630.142,240.857 C643.567,246.851 658.003,252.37 672,256 C810.856,292.014 1237.91,307.887 1413.44,313.013 " fill="none" style="stroke: #A80036; stroke-width: 1.0;"/><polygon fill="none" points="627.036,247.131,611.988,232.213,633.055,234.49,627.036,247.131" style="stroke: #A80036; stroke-width: 1.0;"/><path d="M1427.12,349.201 C1395.2,365.543 1357.17,385.021 1328.19,399.862 " fill="none" style="stroke: #A80036; stroke-width: 1.0;"/><polygon fill="none" points="1424.09,342.886,1445.08,340,1430.47,355.347,1424.09,342.886" style="stroke: #A80036; stroke-width: 1.0;"/><path d="M1490,360.024 C1490,373.579 1490,388.038 1490,399.678 " fill="none" style="stroke: #A80036; stroke-width: 1.0;"/><polygon fill="none" points="1483,360,1490,340,1497,360,1483,360" style="stroke: #A80036; stroke-width: 1.0;"/><path d="M1557.38,348.744 C1592.27,365.179 1634.09,384.882 1665.89,399.862 " fill="none" style="stroke: #A80036; stroke-width: 1.0;"/><polygon fill="none" points="1553.93,354.857,1538.82,340,1559.9,342.192,1553.93,354.857" style="stroke: #A80036; stroke-width: 1.0;"/><path d="M1586.26,339.425 C1663.16,357.341 1770.47,382.341 1847.66,400.323 " fill="none" style="stroke: #A80036; stroke-width: 1.0;"/><polygon fill="none" points="1584.3,346.157,1566.41,334.802,1587.48,332.522,1584.3,346.157" style="stroke: #A80036; stroke-width: 1.0;"/></g></svg>